<mxfile host="app.diagrams.net" modified="2021-11-19T01:20:39.871Z" agent="5.0 (Windows NT 10.0; Win64; x64) AppleWebKit/537.36 (KHTML, like Gecko) Chrome/96.0.4664.45 Safari/537.36" etag="KUSA2eclYiFvtQK2bl12" version="15.8.2" type="github">
  <diagram id="R2lEEEUBdFMjLlhIrx00" name="Page-1">
    <mxGraphModel dx="1422" dy="798" grid="1" gridSize="10" guides="1" tooltips="1" connect="1" arrows="1" fold="1" page="1" pageScale="1" pageWidth="850" pageHeight="1100" math="0" shadow="0" extFonts="Permanent Marker^https://fonts.googleapis.com/css?family=Permanent+Marker">
      <root>
        <mxCell id="0" />
        <mxCell id="1" parent="0" />
        <mxCell id="rGyOW7nAQX0IVMeGq8kn-56" value="" style="rounded=0;whiteSpace=wrap;html=1;fillColor=#d5e8d4;strokeColor=none;" parent="1" vertex="1">
          <mxGeometry x="350" y="530" width="500" height="260" as="geometry" />
        </mxCell>
        <mxCell id="rGyOW7nAQX0IVMeGq8kn-58" value="" style="rounded=0;whiteSpace=wrap;html=1;fillColor=#d5e8d4;strokeColor=none;" parent="1" vertex="1">
          <mxGeometry x="500" y="80" width="350" height="610" as="geometry" />
        </mxCell>
        <mxCell id="rGyOW7nAQX0IVMeGq8kn-54" value="" style="rounded=0;whiteSpace=wrap;html=1;fillColor=#dae8fc;strokeColor=none;" parent="1" vertex="1">
          <mxGeometry y="240" width="420" height="270" as="geometry" />
        </mxCell>
        <mxCell id="rGyOW7nAQX0IVMeGq8kn-53" value="" style="rounded=0;whiteSpace=wrap;html=1;fillColor=#dae8fc;strokeColor=none;" parent="1" vertex="1">
          <mxGeometry y="40" width="270" height="460" as="geometry" />
        </mxCell>
        <mxCell id="mhd1rwPNE3jdb9sb6sS8-1" value="Blog" style="rounded=1;arcSize=10;whiteSpace=wrap;html=1;align=center;" parent="1" vertex="1">
          <mxGeometry x="120" y="260" width="100" height="40" as="geometry" />
        </mxCell>
        <mxCell id="mhd1rwPNE3jdb9sb6sS8-2" value="title" style="ellipse;whiteSpace=wrap;html=1;align=center;" parent="1" vertex="1">
          <mxGeometry x="1" y="204.5" width="100" height="30" as="geometry" />
        </mxCell>
        <mxCell id="mhd1rwPNE3jdb9sb6sS8-3" value="Description" style="ellipse;whiteSpace=wrap;html=1;align=center;" parent="1" vertex="1">
          <mxGeometry x="1" y="244.5" width="100" height="30" as="geometry" />
        </mxCell>
        <mxCell id="mhd1rwPNE3jdb9sb6sS8-4" value="Introduction" style="ellipse;whiteSpace=wrap;html=1;align=center;" parent="1" vertex="1">
          <mxGeometry x="1" y="284.5" width="98" height="30" as="geometry" />
        </mxCell>
        <mxCell id="mhd1rwPNE3jdb9sb6sS8-11" value="User" style="whiteSpace=wrap;html=1;align=center;" parent="1" vertex="1">
          <mxGeometry x="340" y="150" width="100" height="40" as="geometry" />
        </mxCell>
        <mxCell id="mhd1rwPNE3jdb9sb6sS8-19" value="Comments" style="shape=ext;margin=3;double=1;whiteSpace=wrap;html=1;align=center;" parent="1" vertex="1">
          <mxGeometry x="260" y="410" width="100" height="40" as="geometry" />
        </mxCell>
        <mxCell id="mhd1rwPNE3jdb9sb6sS8-24" value="date" style="ellipse;whiteSpace=wrap;html=1;align=center;" parent="1" vertex="1">
          <mxGeometry x="4" y="324.5" width="94" height="30" as="geometry" />
        </mxCell>
        <mxCell id="mhd1rwPNE3jdb9sb6sS8-32" value="" style="endArrow=none;html=1;rounded=0;entryX=0.5;entryY=1;entryDx=0;entryDy=0;" parent="1" target="mhd1rwPNE3jdb9sb6sS8-11" edge="1">
          <mxGeometry relative="1" as="geometry">
            <mxPoint x="220" y="280" as="sourcePoint" />
            <mxPoint x="350" y="279" as="targetPoint" />
            <Array as="points">
              <mxPoint x="390" y="279" />
            </Array>
          </mxGeometry>
        </mxCell>
        <mxCell id="mhd1rwPNE3jdb9sb6sS8-33" value="M : 1" style="edgeLabel;html=1;align=center;verticalAlign=middle;resizable=0;points=[];" parent="mhd1rwPNE3jdb9sb6sS8-32" vertex="1" connectable="0">
          <mxGeometry x="-0.0588" y="-2" relative="1" as="geometry">
            <mxPoint as="offset" />
          </mxGeometry>
        </mxCell>
        <mxCell id="mhd1rwPNE3jdb9sb6sS8-37" value="1:M" style="endArrow=none;html=1;rounded=0;entryX=1;entryY=0.5;entryDx=0;entryDy=0;" parent="1" target="mhd1rwPNE3jdb9sb6sS8-19" edge="1">
          <mxGeometry relative="1" as="geometry">
            <mxPoint x="390" y="190" as="sourcePoint" />
            <mxPoint x="480" y="340" as="targetPoint" />
            <Array as="points">
              <mxPoint x="390" y="430" />
            </Array>
          </mxGeometry>
        </mxCell>
        <mxCell id="mhd1rwPNE3jdb9sb6sS8-38" value="1:M" style="endArrow=none;html=1;rounded=0;exitX=1;exitY=0.5;exitDx=0;exitDy=0;entryX=0.5;entryY=0;entryDx=0;entryDy=0;" parent="1" source="mhd1rwPNE3jdb9sb6sS8-1" target="mhd1rwPNE3jdb9sb6sS8-19" edge="1">
          <mxGeometry relative="1" as="geometry">
            <mxPoint x="320" y="340" as="sourcePoint" />
            <mxPoint x="480" y="340" as="targetPoint" />
            <Array as="points">
              <mxPoint x="220" y="340" />
              <mxPoint x="310" y="340" />
            </Array>
          </mxGeometry>
        </mxCell>
        <mxCell id="mhd1rwPNE3jdb9sb6sS8-40" value="Template" style="whiteSpace=wrap;html=1;align=center;" parent="1" vertex="1">
          <mxGeometry x="545" y="150" width="100" height="40" as="geometry" />
        </mxCell>
        <mxCell id="mhd1rwPNE3jdb9sb6sS8-41" value="" style="endArrow=none;html=1;rounded=0;entryX=0;entryY=0.5;entryDx=0;entryDy=0;exitX=1;exitY=0.5;exitDx=0;exitDy=0;" parent="1" source="mhd1rwPNE3jdb9sb6sS8-11" target="mhd1rwPNE3jdb9sb6sS8-40" edge="1">
          <mxGeometry relative="1" as="geometry">
            <mxPoint x="450" y="170" as="sourcePoint" />
            <mxPoint x="545" y="169.5" as="targetPoint" />
          </mxGeometry>
        </mxCell>
        <mxCell id="mhd1rwPNE3jdb9sb6sS8-42" value="1:M" style="edgeLabel;html=1;align=center;verticalAlign=middle;resizable=0;points=[];" parent="mhd1rwPNE3jdb9sb6sS8-41" vertex="1" connectable="0">
          <mxGeometry x="-0.12" y="1" relative="1" as="geometry">
            <mxPoint as="offset" />
          </mxGeometry>
        </mxCell>
        <mxCell id="mhd1rwPNE3jdb9sb6sS8-43" value="Name" style="ellipse;whiteSpace=wrap;html=1;align=center;" parent="1" vertex="1">
          <mxGeometry x="670" y="90" width="100" height="30" as="geometry" />
        </mxCell>
        <mxCell id="mhd1rwPNE3jdb9sb6sS8-44" value="Description" style="ellipse;whiteSpace=wrap;html=1;align=center;" parent="1" vertex="1">
          <mxGeometry x="665" y="130" width="100" height="30" as="geometry" />
        </mxCell>
        <mxCell id="mhd1rwPNE3jdb9sb6sS8-53" value="flagShowBlog" style="ellipse;whiteSpace=wrap;html=1;align=center;" parent="1" vertex="1">
          <mxGeometry y="359.5" width="100" height="30" as="geometry" />
        </mxCell>
        <mxCell id="mhd1rwPNE3jdb9sb6sS8-66" value="Tags" style="shape=ext;margin=3;double=1;whiteSpace=wrap;html=1;align=center;" parent="1" vertex="1">
          <mxGeometry x="120" y="80" width="100" height="40" as="geometry" />
        </mxCell>
        <mxCell id="mhd1rwPNE3jdb9sb6sS8-73" value="M:M" style="endArrow=none;html=1;rounded=0;entryX=0.5;entryY=0;entryDx=0;entryDy=0;exitX=0.5;exitY=1;exitDx=0;exitDy=0;" parent="1" source="mhd1rwPNE3jdb9sb6sS8-66" target="mhd1rwPNE3jdb9sb6sS8-1" edge="1">
          <mxGeometry relative="1" as="geometry">
            <mxPoint x="140" y="189" as="sourcePoint" />
            <mxPoint x="300" y="189" as="targetPoint" />
          </mxGeometry>
        </mxCell>
        <mxCell id="mhd1rwPNE3jdb9sb6sS8-74" value="title" style="ellipse;whiteSpace=wrap;html=1;align=center;" parent="1" vertex="1">
          <mxGeometry x="4" y="60" width="100" height="30" as="geometry" />
        </mxCell>
        <mxCell id="mhd1rwPNE3jdb9sb6sS8-75" value="Description" style="ellipse;whiteSpace=wrap;html=1;align=center;" parent="1" vertex="1">
          <mxGeometry x="4" y="100" width="100" height="30" as="geometry" />
        </mxCell>
        <mxCell id="mhd1rwPNE3jdb9sb6sS8-76" value="text" style="ellipse;whiteSpace=wrap;html=1;align=center;" parent="1" vertex="1">
          <mxGeometry x="140" y="400" width="100" height="30" as="geometry" />
        </mxCell>
        <mxCell id="mhd1rwPNE3jdb9sb6sS8-79" value="Sections" style="whiteSpace=wrap;html=1;align=center;" parent="1" vertex="1">
          <mxGeometry x="545" y="310" width="100" height="40" as="geometry" />
        </mxCell>
        <mxCell id="mhd1rwPNE3jdb9sb6sS8-81" value="Colors" style="ellipse;shape=doubleEllipse;margin=3;whiteSpace=wrap;html=1;align=center;" parent="1" vertex="1">
          <mxGeometry x="665" y="165" width="100" height="30" as="geometry" />
        </mxCell>
        <mxCell id="mhd1rwPNE3jdb9sb6sS8-83" value="Fonts" style="ellipse;shape=doubleEllipse;margin=3;whiteSpace=wrap;html=1;align=center;" parent="1" vertex="1">
          <mxGeometry x="665" y="195" width="100" height="30" as="geometry" />
        </mxCell>
        <mxCell id="PP_Ne7jfOEdoxVb4praj-1" value="JobFlag" style="ellipse;whiteSpace=wrap;html=1;align=center;" parent="1" vertex="1">
          <mxGeometry x="250" width="100" height="30" as="geometry" />
        </mxCell>
        <mxCell id="PP_Ne7jfOEdoxVb4praj-4" value="likes" style="ellipse;whiteSpace=wrap;html=1;align=center;" parent="1" vertex="1">
          <mxGeometry x="132" y="440" width="100" height="30" as="geometry" />
        </mxCell>
        <mxCell id="PP_Ne7jfOEdoxVb4praj-5" value="" style="endArrow=none;html=1;rounded=0;entryX=0.5;entryY=1;entryDx=0;entryDy=0;exitX=1;exitY=1;exitDx=0;exitDy=0;" parent="1" source="mhd1rwPNE3jdb9sb6sS8-19" target="mhd1rwPNE3jdb9sb6sS8-19" edge="1">
          <mxGeometry relative="1" as="geometry">
            <mxPoint x="310" y="450" as="sourcePoint" />
            <mxPoint x="310" y="500" as="targetPoint" />
            <Array as="points">
              <mxPoint x="410" y="450" />
              <mxPoint x="410" y="480" />
              <mxPoint x="310" y="480" />
            </Array>
          </mxGeometry>
        </mxCell>
        <mxCell id="PP_Ne7jfOEdoxVb4praj-6" value="1:1" style="edgeLabel;html=1;align=center;verticalAlign=middle;resizable=0;points=[];" parent="PP_Ne7jfOEdoxVb4praj-5" vertex="1" connectable="0">
          <mxGeometry x="0.0667" y="1" relative="1" as="geometry">
            <mxPoint as="offset" />
          </mxGeometry>
        </mxCell>
        <mxCell id="PP_Ne7jfOEdoxVb4praj-9" value="WebPage" style="whiteSpace=wrap;html=1;align=center;" parent="1" vertex="1">
          <mxGeometry x="340" y="50" width="100" height="40" as="geometry" />
        </mxCell>
        <mxCell id="PP_Ne7jfOEdoxVb4praj-10" value="1:1" style="endArrow=none;html=1;rounded=0;exitX=0.5;exitY=1;exitDx=0;exitDy=0;entryX=0.5;entryY=0;entryDx=0;entryDy=0;" parent="1" source="PP_Ne7jfOEdoxVb4praj-9" target="mhd1rwPNE3jdb9sb6sS8-11" edge="1">
          <mxGeometry relative="1" as="geometry">
            <mxPoint x="320" y="150" as="sourcePoint" />
            <mxPoint x="480" y="150" as="targetPoint" />
          </mxGeometry>
        </mxCell>
        <mxCell id="PP_Ne7jfOEdoxVb4praj-11" value="VisibilityFlag" style="ellipse;whiteSpace=wrap;html=1;align=center;" parent="1" vertex="1">
          <mxGeometry x="355" width="100" height="30" as="geometry" />
        </mxCell>
        <mxCell id="PP_Ne7jfOEdoxVb4praj-12" value="UrlName" style="ellipse;whiteSpace=wrap;html=1;align=center;" parent="1" vertex="1">
          <mxGeometry x="461" width="100" height="30" as="geometry" />
        </mxCell>
        <mxCell id="PP_Ne7jfOEdoxVb4praj-15" value="1:M" style="endArrow=none;html=1;rounded=0;entryX=0.5;entryY=0;entryDx=0;entryDy=0;" parent="1" target="mhd1rwPNE3jdb9sb6sS8-79" edge="1">
          <mxGeometry relative="1" as="geometry">
            <mxPoint x="595" y="190" as="sourcePoint" />
            <mxPoint x="755" y="190" as="targetPoint" />
          </mxGeometry>
        </mxCell>
        <mxCell id="PP_Ne7jfOEdoxVb4praj-17" value="Type" style="ellipse;shape=doubleEllipse;margin=3;whiteSpace=wrap;html=1;align=center;" parent="1" vertex="1">
          <mxGeometry x="655" y="282" width="100" height="30" as="geometry" />
        </mxCell>
        <mxCell id="PP_Ne7jfOEdoxVb4praj-21" value="SectionId" style="ellipse;whiteSpace=wrap;html=1;align=center;" parent="1" vertex="1">
          <mxGeometry x="665" y="554.5" width="100" height="30" as="geometry" />
        </mxCell>
        <mxCell id="PP_Ne7jfOEdoxVb4praj-22" value="TemplateId" style="ellipse;whiteSpace=wrap;html=1;align=center;" parent="1" vertex="1">
          <mxGeometry x="655" y="350" width="100" height="30" as="geometry" />
        </mxCell>
        <mxCell id="rGyOW7nAQX0IVMeGq8kn-3" value="order" style="ellipse;whiteSpace=wrap;html=1;align=center;" parent="1" vertex="1">
          <mxGeometry x="662" y="523" width="100" height="30" as="geometry" />
        </mxCell>
        <mxCell id="rGyOW7nAQX0IVMeGq8kn-4" value="order" style="ellipse;whiteSpace=wrap;html=1;align=center;" parent="1" vertex="1">
          <mxGeometry x="655" y="315" width="100" height="30" as="geometry" />
        </mxCell>
        <mxCell id="rGyOW7nAQX0IVMeGq8kn-6" value="1:M" style="endArrow=none;html=1;rounded=0;" parent="1" edge="1">
          <mxGeometry relative="1" as="geometry">
            <mxPoint x="595" y="350" as="sourcePoint" />
            <mxPoint x="595" y="430" as="targetPoint" />
          </mxGeometry>
        </mxCell>
        <mxCell id="rGyOW7nAQX0IVMeGq8kn-8" value="Component" style="whiteSpace=wrap;html=1;align=center;" parent="1" vertex="1">
          <mxGeometry x="544" y="547" width="100" height="40" as="geometry" />
        </mxCell>
        <mxCell id="rGyOW7nAQX0IVMeGq8kn-9" value="Image" style="whiteSpace=wrap;html=1;align=center;" parent="1" vertex="1">
          <mxGeometry x="616" y="650" width="119" height="40" as="geometry" />
        </mxCell>
        <mxCell id="rGyOW7nAQX0IVMeGq8kn-12" value="Paragraph" style="whiteSpace=wrap;html=1;align=center;" parent="1" vertex="1">
          <mxGeometry x="485" y="650" width="119" height="40" as="geometry" />
        </mxCell>
        <mxCell id="rGyOW7nAQX0IVMeGq8kn-13" value="Title" style="whiteSpace=wrap;html=1;align=center;" parent="1" vertex="1">
          <mxGeometry x="355" y="650" width="119" height="40" as="geometry" />
        </mxCell>
        <mxCell id="rGyOW7nAQX0IVMeGq8kn-15" value="List" style="whiteSpace=wrap;html=1;align=center;" parent="1" vertex="1">
          <mxGeometry x="744.5" y="650" width="100" height="40" as="geometry" />
        </mxCell>
        <mxCell id="rGyOW7nAQX0IVMeGq8kn-39" value="gridSize" style="ellipse;whiteSpace=wrap;html=1;align=center;" parent="1" vertex="1">
          <mxGeometry x="744.5" y="430" width="100" height="30" as="geometry" />
        </mxCell>
        <mxCell id="rGyOW7nAQX0IVMeGq8kn-41" value="Blocks" style="whiteSpace=wrap;html=1;align=center;" parent="1" vertex="1">
          <mxGeometry x="545" y="430" width="100" height="40" as="geometry" />
        </mxCell>
        <mxCell id="rGyOW7nAQX0IVMeGq8kn-42" value="1:M" style="endArrow=none;html=1;rounded=0;" parent="1" edge="1">
          <mxGeometry relative="1" as="geometry">
            <mxPoint x="594.5" y="470" as="sourcePoint" />
            <mxPoint x="594.5" y="550" as="targetPoint" />
          </mxGeometry>
        </mxCell>
        <mxCell id="rGyOW7nAQX0IVMeGq8kn-43" value="order" style="ellipse;whiteSpace=wrap;html=1;align=center;" parent="1" vertex="1">
          <mxGeometry x="654.5" y="410" width="100" height="30" as="geometry" />
        </mxCell>
        <mxCell id="rGyOW7nAQX0IVMeGq8kn-44" value="SectionId" style="ellipse;whiteSpace=wrap;html=1;align=center;" parent="1" vertex="1">
          <mxGeometry x="654.5" y="450" width="100" height="30" as="geometry" />
        </mxCell>
        <mxCell id="rGyOW7nAQX0IVMeGq8kn-46" value="" style="endArrow=none;html=1;rounded=0;entryX=0.5;entryY=0;entryDx=0;entryDy=0;" parent="1" source="rGyOW7nAQX0IVMeGq8kn-8" target="rGyOW7nAQX0IVMeGq8kn-12" edge="1">
          <mxGeometry relative="1" as="geometry">
            <mxPoint x="405.5" y="649" as="sourcePoint" />
            <mxPoint x="565.5" y="649" as="targetPoint" />
          </mxGeometry>
        </mxCell>
        <mxCell id="rGyOW7nAQX0IVMeGq8kn-48" value="" style="endArrow=none;html=1;rounded=0;entryX=0.5;entryY=0;entryDx=0;entryDy=0;" parent="1" target="rGyOW7nAQX0IVMeGq8kn-9" edge="1">
          <mxGeometry relative="1" as="geometry">
            <mxPoint x="598.5722891566265" y="587" as="sourcePoint" />
            <mxPoint x="561" y="650" as="targetPoint" />
          </mxGeometry>
        </mxCell>
        <mxCell id="rGyOW7nAQX0IVMeGq8kn-49" value="" style="endArrow=none;html=1;rounded=0;entryX=0.5;entryY=0;entryDx=0;entryDy=0;" parent="1" target="rGyOW7nAQX0IVMeGq8kn-15" edge="1">
          <mxGeometry relative="1" as="geometry">
            <mxPoint x="645.0022891566265" y="587" as="sourcePoint" />
            <mxPoint x="721.93" y="650" as="targetPoint" />
          </mxGeometry>
        </mxCell>
        <mxCell id="rGyOW7nAQX0IVMeGq8kn-50" value="" style="endArrow=none;html=1;rounded=0;entryX=0.5;entryY=0;entryDx=0;entryDy=0;" parent="1" target="rGyOW7nAQX0IVMeGq8kn-13" edge="1">
          <mxGeometry relative="1" as="geometry">
            <mxPoint x="547.5722891566265" y="587" as="sourcePoint" />
            <mxPoint x="510" y="650" as="targetPoint" />
          </mxGeometry>
        </mxCell>
      </root>
    </mxGraphModel>
  </diagram>
</mxfile>
